<?xml version="1.0" encoding="utf-8"?>
<!-- Generator: Adobe Illustrator 26.5.0, SVG Export Plug-In . SVG Version: 6.00 Build 0)  -->
<svg version="1.0" id="Camada_1" xmlns="http://www.w3.org/2000/svg" xmlns:xlink="http://www.w3.org/1999/xlink" x="0px" y="0px"
	 viewBox="0 0 200 85.87" style="enable-background:new 0 0 200 85.87;" xml:space="preserve">
<style type="text/css">
	.st0{font-family:'Geometria-Bold';}
	.st1{font-size:39.1971px;}
	.st2{fill:#E82E57;}
	.st3{font-family:'Arial-Black';}
	.st4{font-size:39.9928px;}
</style>
<text transform="matrix(1 0 0 1 22.4126 40.3624)" class="st0 st1">RAFAEL</text>
<text transform="matrix(1 0 0 1 22.4126 73.4035)" class="st0 st1">LOPES</text>
<g>
	<path class="st2" d="M187.25,47.92c0.46-1.05,1.09-1.91,1.88-2.57c0.79-0.66,2.04-1.48,3.75-2.47c-1.71-1.05-2.96-1.88-3.75-2.47
		c-0.79-0.59-1.42-1.43-1.88-2.52c-0.46-1.09-0.69-2.55-0.69-4.4V12.94c0-2.63-0.77-4.54-2.32-5.73c-1.55-1.19-4.1-1.78-7.66-1.78V0
		h2.37c4.81,0,8.3,0.89,10.47,2.67c2.17,1.78,3.26,4.68,3.26,8.7v22.53c0,2.17,0.4,3.75,1.19,4.74c0.79,0.99,2.01,1.48,3.66,1.48
		H200v5.53h-2.47c-3.23,0-4.84,2.08-4.84,6.23V74.5c0,4.02-1.09,6.92-3.26,8.7c-2.17,1.78-5.66,2.67-10.47,2.67h-2.37v-5.43
		c3.56,0,6.11-0.61,7.66-1.83c1.55-1.22,2.32-3.15,2.32-5.78V52.27C186.56,50.43,186.79,48.98,187.25,47.92z"/>
</g>
<g>
	<path class="st2" d="M12.75,37.94c-0.46,1.05-1.09,1.91-1.88,2.57c-0.79,0.66-2.04,1.48-3.75,2.47c1.71,1.05,2.96,1.88,3.75,2.47
		c0.79,0.59,1.42,1.43,1.88,2.52c0.46,1.09,0.69,2.55,0.69,4.4v20.55c0,2.63,0.77,4.54,2.32,5.73c1.55,1.19,4.1,1.78,7.66,1.78v5.43
		h-2.37c-4.81,0-8.3-0.89-10.47-2.67s-3.26-4.68-3.26-8.7V51.97c0-2.17-0.4-3.75-1.19-4.74c-0.79-0.99-2.01-1.48-3.66-1.48H0v-5.53
		h2.47c3.23,0,4.84-2.08,4.84-6.23V11.36c0-4.02,1.09-6.92,3.26-8.7S16.24,0,21.05,0h2.37v5.43c-3.56,0-6.11,0.61-7.66,1.83
		c-1.55,1.22-2.32,3.15-2.32,5.78V33.6C13.44,35.44,13.21,36.89,12.75,37.94z"/>
</g>
<text transform="matrix(1 0 0 1 156.8872 71.0514)" class="st2 st3 st4">;</text>
</svg>
