<?xml version="1.0" encoding="UTF-8"?><svg id="Camada_2" xmlns="http://www.w3.org/2000/svg" viewBox="0 0 180 78.77"><defs><style>.cls-1{fill:#e82e57;}</style></defs><g id="Camada_1-2"><g><path d="M27.64,37.03h-5.18V11.86h11.65c2.68,0,4.79,.7,6.33,2.09,1.56,1.37,2.34,3.15,2.34,5.36,0,1.68-.46,3.13-1.38,4.37-.92,1.23-2.2,2.1-3.83,2.61l7.77,10.75h-6l-7.34-10.18h-4.35v10.18Zm0-20.64v6.11h6.18c1.17,0,2.09-.26,2.75-.79,.66-.53,.99-1.28,.99-2.27s-.33-1.71-.99-2.25c-.66-.54-1.58-.81-2.75-.81h-6.18Z"/><path d="M52.67,37.03h-5.43l10.79-25.31h4.96l10.79,25.31h-5.5l-2.48-5.83h-10.64l-2.48,5.83Zm7.8-18.84l-3.7,8.74h7.37l-3.67-8.74Z"/><path d="M81.8,37.03h-5.18V11.86h18.45v4.64h-13.27v5.11h10.25v4.57h-10.25v10.86Z"/><path d="M99.04,37.03h-5.43l10.79-25.31h4.96l10.79,25.31h-5.5l-2.48-5.83h-10.64l-2.48,5.83Zm7.8-18.84l-3.7,8.74h7.37l-3.67-8.74Z"/><path d="M141.87,37.03h-18.88V11.86h18.48v4.64h-13.3v4.85h10.72v4.57h-10.72v6.47h13.7v4.64Z"/><path d="M164.05,37.03h-17.94V11.86h5.18v20.53h12.76v4.64Z"/></g><g><path d="M40.4,67.34H22.46v-25.17h5.18v20.53h12.76v4.64Z"/><path d="M42.53,54.75c0-3.69,1.23-6.78,3.7-9.28,2.47-2.54,5.59-3.81,9.35-3.81s6.84,1.27,9.31,3.81c2.49,2.54,3.74,5.63,3.74,9.28s-1.25,6.71-3.74,9.28c-2.47,2.54-5.57,3.81-9.31,3.81s-6.88-1.27-9.35-3.81c-2.47-2.54-3.7-5.63-3.7-9.28Zm7.48,5.9c1.49,1.56,3.34,2.34,5.57,2.34s4.05-.78,5.54-2.34c1.49-1.56,2.23-3.52,2.23-5.9s-.74-4.34-2.23-5.9c-1.49-1.56-3.33-2.34-5.54-2.34s-4.09,.78-5.57,2.34c-1.46,1.53-2.19,3.5-2.19,5.9s.73,4.36,2.19,5.9Z"/><path d="M78.79,67.34h-5.18v-25.17h11c2.71,0,4.84,.71,6.4,2.12,1.58,1.39,2.37,3.21,2.37,5.47s-.79,4.11-2.37,5.5c-1.56,1.41-3.69,2.12-6.4,2.12h-5.83v9.96Zm0-20.64v6.26h5.47c1.25,0,2.22-.27,2.91-.81,.7-.54,1.04-1.31,1.04-2.32s-.35-1.78-1.04-2.32c-.7-.54-1.67-.81-2.91-.81h-5.47Z"/><path d="M116.1,67.34h-18.88v-25.17h18.48v4.64h-13.3v4.85h10.72v4.57h-10.72v6.47h13.7v4.64Z"/><path d="M129.48,67.84c-3.79,0-6.98-.9-9.56-2.7v-5.39c1.05,.91,2.45,1.7,4.17,2.37,1.75,.65,3.48,.97,5.18,.97,1.41,0,2.58-.26,3.49-.77,.91-.52,1.37-1.23,1.37-2.14,0-.98-.43-1.68-1.29-2.09-.36-.22-.84-.43-1.44-.65l-.86-.29-2.01-.61-1.87-.61c-.26-.07-.83-.28-1.69-.61-.74-.29-1.28-.54-1.62-.76-1.25-.86-2.04-1.59-2.37-2.19-.58-1.15-.86-2.32-.86-3.52,0-2.23,.85-3.98,2.55-5.25,1.7-1.29,4.01-1.94,6.94-1.94s5.69,.7,8.23,2.09v5.03c-2.57-1.58-5.29-2.37-8.16-2.37s-4.28,.83-4.28,2.48c0,.72,.44,1.29,1.33,1.73,.53,.29,1.21,.54,2.05,.76,1.13,.31,2.04,.58,2.73,.79,2.09,.65,3.91,1.52,5.47,2.62,1.68,1.17,2.52,2.92,2.52,5.25s-.95,4.33-2.84,5.72c-1.89,1.39-4.28,2.09-7.16,2.09Z"/></g><path class="cls-1" d="M168.31,43.96c.42-.97,1-1.75,1.72-2.36,.73-.6,1.87-1.36,3.44-2.27-1.57-.97-2.72-1.72-3.44-2.27s-1.3-1.31-1.72-2.31c-.42-1-.63-2.34-.63-4.03V11.87c0-2.42-.71-4.17-2.13-5.26-1.42-1.09-3.76-1.63-7.02-1.63V0h2.18c4.41,0,7.61,.82,9.61,2.45s2.99,4.29,2.99,7.98V31.09c0,1.99,.36,3.44,1.09,4.35s1.84,1.36,3.35,1.36h2.27v5.08h-2.27c-2.96,0-4.44,1.9-4.44,5.71v20.76c0,3.69-1,6.34-2.99,7.98s-5.2,2.45-9.61,2.45h-2.18v-4.99c3.26,0,5.61-.56,7.02-1.68,1.42-1.12,2.13-2.89,2.13-5.3v-18.85c0-1.69,.21-3.02,.63-3.99Z"/><path class="cls-1" d="M11.69,34.81c-.42,.97-1,1.75-1.72,2.36-.73,.6-1.87,1.36-3.44,2.27,1.57,.97,2.72,1.72,3.44,2.27s1.3,1.31,1.72,2.31c.42,1,.63,2.34,.63,4.03v18.85c0,2.42,.71,4.17,2.13,5.26,1.42,1.09,3.76,1.63,7.02,1.63v4.99h-2.18c-4.41,0-7.61-.82-9.61-2.45s-2.99-4.29-2.99-7.98v-20.67c0-1.99-.36-3.44-1.09-4.35s-1.84-1.36-3.35-1.36H0v-5.08H2.27c2.96,0,4.44-1.9,4.44-5.71V10.42c0-3.69,1-6.34,2.99-7.98S14.9,0,19.31,0h2.18V4.99c-3.26,0-5.61,.56-7.02,1.68-1.42,1.12-2.13,2.89-2.13,5.3V30.82c0,1.69-.21,3.02-.63,3.99Z"/><path class="cls-1" d="M145.27,46.15h7.79v7.31h-7.79v-7.31Zm0,11.79h7.79v6c0,2.21-.46,3.95-1.38,5.23-.92,1.28-2.49,2.41-4.71,3.39l-1.7-3.19c1.39-.64,2.34-1.29,2.86-1.93,.52-.64,.81-1.39,.87-2.27h-3.73v-7.24Z"/></g></svg>